# xmcd
#
# Track frame offsets: 
#        150
#        16555
#        78805
#        100760
#        123051
#        145342
#        172058
#        207122
#        216039
#        234680
#
# Disc length: 3266 seconds
#
# Revision: 0
# Processed by: cddbd v1.5.2PL0 Copyright (c) Steve Scherf et al.
# Submitted via: ExactAudioCopy v1.0b4
#
DISCID=780cc00a
DTITLE=Dr. John With Chris Barber - Live From London
DYEAR=2016
DGENRE=Blues
TTITLE0=New Stack-A-Lee
TTITLE1=New Orleans Medley
TTITLE2=Right Place Wrong Time
TTITLE3=You Lie Too Much
TTITLE4=Memories Of Smiley
TTITLE5=Stranded
TTITLE6=The Wicked Shall Cease
TTITLE7=Mac’s Boogie Woogie
TTITLE8=Little Liza Jane
TTITLE9=When The Saints Go Marching In
EXTD=
EXTT0=
EXTT1=
EXTT2=
EXTT3=
EXTT4=
EXTT5=
EXTT6=
EXTT7=
EXTT8=
EXTT9=
PLAYORDER=
